<svg width="512" height="512" viewBox="0 0 512 512" fill="none" xmlns="http://www.w3.org/2000/svg">
  <rect width="512" height="512" rx="72" fill="#030521"/>
  <g stroke-linecap="round" stroke-linejoin="round">
    <path d="M72 343c31-15 58-16 86-2 28 13 55 13 83-2 29-15 58-15 88 0 29 15 58 15 90-1" stroke="#39bdf8" stroke-width="22"/>
    <path d="M66 382c38-14 72-14 106 0 35 15 70 15 105 0 35-15 70-15 106 0 25 10 49 13 74 7" stroke="#0d4d91" stroke-width="18"/>
    <path d="M90 294c25-38 55-66 90-84 39-20 74-21 103-3 32 20 63 18 94-7 25-19 51-27 77-23" stroke="#dfffe9" stroke-width="25"/>
    <path d="M151 283c-3-42 8-82 33-121 16-25 35-45 58-59" stroke="#8ad8ae" stroke-width="20"/>
    <path d="M253 272c-1-48 16-94 51-138 21-26 47-47 79-61" stroke="#dfffe9" stroke-width="20"/>
    <path d="M350 292c4-44 27-78 70-101 18-10 36-15 53-16" stroke="#bdf5d2" stroke-width="19"/>
    <path d="M185 161l38-62 60-14-30 39 37 14-44 32" stroke="#79c6a2" stroke-width="19"/>
    <path d="M296 142l45-59 64-8-36 36 39 20-49 29" stroke="#dfffe9" stroke-width="18"/>
    <path d="M392 199l49-45 57 2-36 26 30 23-51 15" stroke="#dfffe9" stroke-width="17"/>
  </g>
  <g fill="#39bdf8">
    <circle cx="94" cy="151" r="10"/>
    <circle cx="128" cy="196" r="15"/>
    <circle cx="365" cy="146" r="12"/>
    <circle cx="455" cy="128" r="14"/>
    <circle cx="456" cy="254" r="13"/>
  </g>
  <g fill="#bdf5d2">
    <circle cx="417" cy="87" r="17"/>
    <circle cx="474" cy="180" r="8"/>
    <circle cx="333" cy="191" r="11"/>
  </g>
  <text x="256" y="462" text-anchor="middle" fill="#f3fff7" font-family="Inter, Arial, sans-serif" font-size="84" font-weight="800" letter-spacing="10">HYDRA</text>
</svg>
