<svg width="1920" height="980" viewBox="0 0 1920 980" fill="none" xmlns="http://www.w3.org/2000/svg">
  <rect width="1920" height="980" fill="#9bd8f7"/>
  <path d="M0 0h1920v980H0z" fill="url(#sky)"/>
  <circle cx="318" cy="172" r="74" fill="#fff6b6"/>
  <circle cx="318" cy="172" r="138" fill="#fff6b6" opacity=".25"/>
  <path d="M0 534 236 226l111 136 180-248 209 347 176-258 210 331 159-213 177 250 156-172 306 286v295H0V534Z" fill="#244c63"/>
  <path d="m231 227 116 135 180-248 104 173-79-31-85 123-69-28-61 88-97-49-113 165H0l231-328Z" fill="#e9f4ff" opacity=".92"/>
  <path d="m910 203 212 331 159-213 95 134-78-19-75 95-71-27-79 118-162-254-109 159-91-40 199-284Z" fill="#edf8ff" opacity=".9"/>
  <path d="m1458 399 156-172 306 286v120l-274-243-78 91-59-21-94 127-118-22 161-166Z" fill="#effaff" opacity=".88"/>
  <path d="M0 623c182-87 339-90 472-9 137 82 283 86 438 10 168-83 332-75 492 24 151 92 324 101 518 26v306H0V623Z" fill="#32765f"/>
  <path d="M0 675c171-62 316-63 435-3 141 71 300 70 477-5 169-72 336-61 501 34 149 85 318 86 507 2v277H0V675Z" fill="#71b65b"/>
  <path d="M0 779c214-58 387-48 520 30 130 76 277 79 441 8 162-70 328-64 497 19 135 67 289 78 462 33v111H0V779Z" fill="#b4d16a"/>
  <path d="M475 980c106-141 235-235 386-281 124-37 247-37 368 2 123 40 248 120 376 241l37 38H475Z" fill="#36a6d5"/>
  <path d="M598 980c89-110 193-184 312-222 101-33 202-35 303-7 105 29 214 92 327 189l47 40H598Z" fill="#6ee2f8"/>
  <path d="M708 980c73-80 153-134 240-162 82-27 166-28 253-4 84 23 174 75 270 156l12 10H708Z" fill="#dffbff"/>
  <path d="M0 845c147-34 276-29 386 15 79 32 154 72 225 120H0V845Z" fill="#2f6f45"/>
  <path d="M1920 836c-143-24-264-12-363 35-70 34-136 70-198 109h561V836Z" fill="#2c6a43"/>
  <g opacity=".75">
    <path d="M129 616h28v225h-28z" fill="#2f5d39"/>
    <path d="m143 448 66 189H77l66-189Z" fill="#2c6b43"/>
    <path d="m143 518 88 195H55l88-195Z" fill="#2e7b4b"/>
    <path d="m143 594 106 220H37l106-220Z" fill="#245a38"/>
    <path d="M1744 599h28v248h-28z" fill="#2f5d39"/>
    <path d="m1758 407 74 215h-148l74-215Z" fill="#2c6b43"/>
    <path d="m1758 494 99 230h-198l99-230Z" fill="#2e7b4b"/>
    <path d="m1758 585 120 254h-240l120-254Z" fill="#245a38"/>
  </g>
  <defs>
    <linearGradient id="sky" x1="960" x2="960" y1="0" y2="662" gradientUnits="userSpaceOnUse">
      <stop stop-color="#079ad0"/>
      <stop offset=".48" stop-color="#a7e7ff"/>
      <stop offset="1" stop-color="#eaf9ff"/>
    </linearGradient>
  </defs>
</svg>
